<mxfile host="www.draw.io" modified="2019-12-31T06:14:33.491Z" agent="Mozilla/5.0 (Windows NT 10.0; Win64; x64) AppleWebKit/537.36 (KHTML, like Gecko) Chrome/79.0.3945.88 Safari/537.36" etag="yuYMrgb6h92A-1H19wTp" version="12.4.7" type="github">
  <diagram id="prtHgNgQTEPvFCAcTncT" name="Page-1">
    <mxGraphModel dx="782" dy="397" grid="1" gridSize="10" guides="1" tooltips="1" connect="1" arrows="1" fold="1" page="1" pageScale="1" pageWidth="827" pageHeight="1169" math="0" shadow="0">
      <root>
        <mxCell id="0"/>
        <mxCell id="1" parent="0"/>
        <mxCell id="xvCQEjcO46lgxOFyYezI-1" value="Client Service" style="rounded=1;whiteSpace=wrap;html=1;" vertex="1" parent="1">
          <mxGeometry x="260" y="110" width="120" height="60" as="geometry"/>
        </mxCell>
        <mxCell id="xvCQEjcO46lgxOFyYezI-3" value="Lock Service" style="rounded=0;whiteSpace=wrap;html=1;" vertex="1" parent="1">
          <mxGeometry x="260" y="210" width="120" height="60" as="geometry"/>
        </mxCell>
        <mxCell id="xvCQEjcO46lgxOFyYezI-8" value="ETCD" style="shape=cylinder;whiteSpace=wrap;html=1;boundedLbl=1;backgroundOutline=1;" vertex="1" parent="1">
          <mxGeometry x="275" y="310" width="90" height="80" as="geometry"/>
        </mxCell>
        <mxCell id="xvCQEjcO46lgxOFyYezI-11" value="" style="edgeStyle=orthogonalEdgeStyle;rounded=0;orthogonalLoop=1;jettySize=auto;html=1;" edge="1" parent="1">
          <mxGeometry relative="1" as="geometry">
            <mxPoint x="300.5" y="270" as="sourcePoint"/>
            <mxPoint x="300.5" y="310" as="targetPoint"/>
          </mxGeometry>
        </mxCell>
        <mxCell id="xvCQEjcO46lgxOFyYezI-12" value="" style="endArrow=classic;html=1;" edge="1" parent="1">
          <mxGeometry width="50" height="50" relative="1" as="geometry">
            <mxPoint x="300" y="170" as="sourcePoint"/>
            <mxPoint x="300.5" y="210" as="targetPoint"/>
          </mxGeometry>
        </mxCell>
        <mxCell id="xvCQEjcO46lgxOFyYezI-15" value="" style="endArrow=classic;html=1;entryX=0.661;entryY=1;entryDx=0;entryDy=0;entryPerimeter=0;exitX=0.715;exitY=-0.008;exitDx=0;exitDy=0;exitPerimeter=0;" edge="1" parent="1" source="xvCQEjcO46lgxOFyYezI-8" target="xvCQEjcO46lgxOFyYezI-3">
          <mxGeometry width="50" height="50" relative="1" as="geometry">
            <mxPoint x="330" y="300" as="sourcePoint"/>
            <mxPoint x="370" y="270" as="targetPoint"/>
          </mxGeometry>
        </mxCell>
        <mxCell id="xvCQEjcO46lgxOFyYezI-16" value="" style="endArrow=classic;html=1;entryX=0.661;entryY=1;entryDx=0;entryDy=0;entryPerimeter=0;exitX=0.715;exitY=-0.008;exitDx=0;exitDy=0;exitPerimeter=0;" edge="1" parent="1">
          <mxGeometry width="50" height="50" relative="1" as="geometry">
            <mxPoint x="340.0299999999999" y="209.36" as="sourcePoint"/>
            <mxPoint x="339.99999999999994" y="170" as="targetPoint"/>
          </mxGeometry>
        </mxCell>
      </root>
    </mxGraphModel>
  </diagram>
</mxfile>
